<?xml version="1.0" encoding="UTF-8" standalone="no"?>
<!DOCTYPE svg PUBLIC "-//W3C//DTD SVG 1.1//EN"
 "http://www.w3.org/Graphics/SVG/1.1/DTD/svg11.dtd">
<!-- Generated by graphviz version 10.0.1 (20240210.2158)
 -->
<!-- Title: G Pages: 1 -->
<svg width="762pt" height="1440pt"
 viewBox="0.00 0.00 761.62 1439.57" xmlns="http://www.w3.org/2000/svg" xmlns:xlink="http://www.w3.org/1999/xlink">
<g id="graph0" class="graph" transform="scale(1 1) rotate(0) translate(4 1435.57)">
<title>G</title><style>.edge>path:hover{stroke-width:8}</style>
<polygon fill="white" stroke="none" points="-4,4 -4,-1435.57 757.62,-1435.57 757.62,4 -4,4"/>
<!-- sgio_app -->
<g id="node1" class="node">
<title>sgio_app</title><style>.edge>path:hover{stroke-width:8}</style>
<polygon fill="#4040c0" stroke="black" points="249.3,-119.54 249.3,-134.46 229.19,-145 200.74,-145 180.63,-134.46 180.63,-119.54 200.74,-109 229.19,-109 249.3,-119.54"/>
<text text-anchor="middle" x="214.97" y="-123.5" font-family="Helvetica,sans-Serif" font-size="10.00" fill="#ffffff">sgio.app</text>
</g>
<!-- __main__ -->
<g id="node6" class="node">
<title>__main__</title><style>.edge>path:hover{stroke-width:8}</style>
<polygon fill="#633535" stroke="black" points="252.72,-10.54 252.72,-25.46 230.6,-36 199.33,-36 177.21,-25.46 177.21,-10.54 199.33,0 230.6,0 252.72,-10.54"/>
<text text-anchor="middle" x="214.97" y="-14.5" font-family="Helvetica,sans-Serif" font-size="10.00" fill="#ffffff">__main__</text>
</g>
<!-- sgio_app&#45;&gt;__main__ -->
<g id="edge4" class="edge">
<title>sgio_app&#45;&gt;__main__</title><style>.edge>path:hover{stroke-width:8}</style>
<path fill="none" stroke="black" d="M214.97,-108.81C214.97,-92.27 214.97,-66.98 214.97,-47.44"/>
<polygon fill="#4040c0" stroke="black" points="218.47,-47.66 214.97,-37.66 211.47,-47.66 218.47,-47.66"/>
</g>
<!-- sgio_meshio_sg_main -->
<g id="node2" class="node">
<title>sgio_meshio_sg_main</title><style>.edge>path:hover{stroke-width:8}</style>
<polygon fill="#28287a" stroke="black" points="184.62,-1370.96 184.62,-1406.47 161.98,-1431.57 129.96,-1431.57 107.31,-1406.47 107.31,-1370.96 129.96,-1345.85 161.98,-1345.85 184.62,-1370.96"/>
<text text-anchor="middle" x="145.97" y="-1403.21" font-family="Helvetica,sans-Serif" font-size="10.00" fill="#ffffff">sgio.</text>
<text text-anchor="middle" x="145.97" y="-1391.21" font-family="Helvetica,sans-Serif" font-size="10.00" fill="#ffffff">meshio.</text>
<text text-anchor="middle" x="145.97" y="-1379.21" font-family="Helvetica,sans-Serif" font-size="10.00" fill="#ffffff">sg.</text>
<text text-anchor="middle" x="145.97" y="-1367.21" font-family="Helvetica,sans-Serif" font-size="10.00" fill="#ffffff">main</text>
</g>
<!-- sgio_meshio_sg -->
<g id="node14" class="node">
<title>sgio_meshio_sg</title><style>.edge>path:hover{stroke-width:8}</style>
<polygon fill="#3333cc" stroke="black" points="199.34,-1259.53 199.34,-1274.45 168.07,-1284.99 123.86,-1284.99 92.59,-1274.45 92.59,-1259.53 123.86,-1248.99 168.07,-1248.99 199.34,-1259.53"/>
<text text-anchor="middle" x="145.97" y="-1263.49" font-family="Helvetica,sans-Serif" font-size="10.00" fill="#ffffff">sgio.meshio.sg</text>
</g>
<!-- sgio_meshio_sg_main&#45;&gt;sgio_meshio_sg -->
<g id="edge21" class="edge">
<title>sgio_meshio_sg_main&#45;&gt;sgio_meshio_sg</title><style>.edge>path:hover{stroke-width:8}</style>
<path fill="none" stroke="black" d="M139.48,-1345.5C138.98,-1329.3 139.19,-1311.21 140.11,-1296.58"/>
<polygon fill="#28287a" stroke="black" points="143.59,-1296.99 140.93,-1286.73 136.61,-1296.41 143.59,-1296.99"/>
</g>
<!-- sgio_meshio__mesh -->
<g id="node3" class="node">
<title>sgio_meshio__mesh</title><style>.edge>path:hover{stroke-width:8}</style>
<polygon fill="#0505db" stroke="black" points="185.62,-981.78 185.62,-1009.68 162.98,-1029.41 130.96,-1029.41 108.31,-1009.68 108.31,-981.78 130.96,-962.06 162.98,-962.06 185.62,-981.78"/>
<text text-anchor="middle" x="146.97" y="-1004.23" font-family="Helvetica,sans-Serif" font-size="10.00" fill="#ffffff">sgio.</text>
<text text-anchor="middle" x="146.97" y="-992.23" font-family="Helvetica,sans-Serif" font-size="10.00" fill="#ffffff">meshio.</text>
<text text-anchor="middle" x="146.97" y="-980.23" font-family="Helvetica,sans-Serif" font-size="10.00" fill="#ffffff">_mesh</text>
</g>
<!-- sgio_meshio__helpers -->
<g id="node4" class="node">
<title>sgio_meshio__helpers</title><style>.edge>path:hover{stroke-width:8}</style>
<polygon fill="#0505c7" stroke="black" points="187.34,-878.43 187.34,-906.33 163.69,-926.06 130.24,-926.06 106.59,-906.33 106.59,-878.43 130.24,-858.7 163.69,-858.7 187.34,-878.43"/>
<text text-anchor="middle" x="146.97" y="-900.88" font-family="Helvetica,sans-Serif" font-size="10.00" fill="#ffffff">sgio.</text>
<text text-anchor="middle" x="146.97" y="-888.88" font-family="Helvetica,sans-Serif" font-size="10.00" fill="#ffffff">meshio.</text>
<text text-anchor="middle" x="146.97" y="-876.88" font-family="Helvetica,sans-Serif" font-size="10.00" fill="#ffffff">_helpers</text>
</g>
<!-- sgio_meshio__mesh&#45;&gt;sgio_meshio__helpers -->
<g id="edge15" class="edge">
<title>sgio_meshio__mesh&#45;&gt;sgio_meshio__helpers</title><style>.edge>path:hover{stroke-width:8}</style>
<path fill="none" stroke="black" d="M140.6,-961.83C140.26,-954.22 140.14,-945.99 140.26,-937.97"/>
<polygon fill="#0505db" stroke="black" points="143.76,-938.08 140.55,-927.98 136.76,-937.88 143.76,-938.08"/>
</g>
<!-- sgio_core_sg -->
<g id="node15" class="node">
<title>sgio_core_sg</title><style>.edge>path:hover{stroke-width:8}</style>
<polygon fill="#0505db" stroke="black" points="260.04,-797.25 260.04,-812.16 233.64,-822.7 196.3,-822.7 169.89,-812.16 169.89,-797.25 196.3,-786.7 233.64,-786.7 260.04,-797.25"/>
<text text-anchor="middle" x="214.97" y="-801.2" font-family="Helvetica,sans-Serif" font-size="10.00" fill="#ffffff">sgio.core.sg</text>
</g>
<!-- sgio_meshio__mesh&#45;&gt;sgio_core_sg -->
<g id="edge14" class="edge">
<title>sgio_meshio__mesh&#45;&gt;sgio_core_sg</title><style>.edge>path:hover{stroke-width:8}</style>
<path fill="none" stroke="black" d="M170.4,-968.08C179.78,-956.02 189.81,-941.11 195.97,-926.06 208.14,-896.27 212.56,-859.39 214.13,-834.37"/>
<polygon fill="#0505db" stroke="black" points="217.62,-834.79 214.63,-824.63 210.63,-834.44 217.62,-834.79"/>
</g>
<!-- sgio_meshio__helpers&#45;&gt;sgio_meshio__mesh -->
<g id="edge13" class="edge">
<title>sgio_meshio__helpers&#45;&gt;sgio_meshio__mesh</title><style>.edge>path:hover{stroke-width:8}</style>
<path fill="none" stroke="black" d="M153.34,-926.47C153.68,-934.09 153.79,-942.32 153.67,-950.33"/>
<polygon fill="#0505c7" stroke="black" points="150.17,-950.22 153.38,-960.31 157.17,-950.42 150.17,-950.22"/>
</g>
<!-- sgio_model -->
<g id="node5" class="node">
<title>sgio_model</title><style>.edge>path:hover{stroke-width:8}</style>
<polygon fill="#0505db" stroke="black" points="256.13,-475.9 256.13,-490.81 232.02,-501.35 197.91,-501.35 173.8,-490.81 173.8,-475.9 197.91,-465.35 232.02,-465.35 256.13,-475.9"/>
<text text-anchor="middle" x="214.97" y="-479.85" font-family="Helvetica,sans-Serif" font-size="10.00" fill="#ffffff">sgio.model</text>
</g>
<!-- sgio_io__abaqus -->
<g id="node8" class="node">
<title>sgio_io__abaqus</title><style>.edge>path:hover{stroke-width:8}</style>
<polygon fill="#303091" stroke="black" points="255.34,-344.73 255.34,-372.63 231.69,-392.35 198.24,-392.35 174.59,-372.63 174.59,-344.73 198.24,-325 231.69,-325 255.34,-344.73"/>
<text text-anchor="middle" x="214.97" y="-367.18" font-family="Helvetica,sans-Serif" font-size="10.00" fill="#ffffff">sgio.</text>
<text text-anchor="middle" x="214.97" y="-355.18" font-family="Helvetica,sans-Serif" font-size="10.00" fill="#ffffff">io.</text>
<text text-anchor="middle" x="214.97" y="-343.18" font-family="Helvetica,sans-Serif" font-size="10.00" fill="#ffffff">_abaqus</text>
</g>
<!-- sgio_model&#45;&gt;sgio_io__abaqus -->
<g id="edge24" class="edge">
<title>sgio_model&#45;&gt;sgio_io__abaqus</title><style>.edge>path:hover{stroke-width:8}</style>
<path fill="none" stroke="black" d="M214.97,-465.04C214.97,-449.21 214.97,-425.12 214.97,-403.97"/>
<polygon fill="#0505db" stroke="black" points="218.47,-404.1 214.97,-394.1 211.47,-404.1 218.47,-404.1"/>
</g>
<!-- sgio_meshio_hmf -->
<g id="node7" class="node">
<title>sgio_meshio_hmf</title><style>.edge>path:hover{stroke-width:8}</style>
<polygon fill="#4040c0" stroke="black" points="373.62,-1374.76 373.62,-1402.66 350.98,-1422.39 318.96,-1422.39 296.31,-1402.66 296.31,-1374.76 318.96,-1355.04 350.98,-1355.04 373.62,-1374.76"/>
<text text-anchor="middle" x="334.97" y="-1397.21" font-family="Helvetica,sans-Serif" font-size="10.00" fill="#ffffff">sgio.</text>
<text text-anchor="middle" x="334.97" y="-1385.21" font-family="Helvetica,sans-Serif" font-size="10.00" fill="#ffffff">meshio.</text>
<text text-anchor="middle" x="334.97" y="-1373.21" font-family="Helvetica,sans-Serif" font-size="10.00" fill="#ffffff">hmf</text>
</g>
<!-- sgio_meshio -->
<g id="node21" class="node">
<title>sgio_meshio</title><style>.edge>path:hover{stroke-width:8}</style>
<polygon fill="#030395" stroke="black" points="306.55,-1259.53 306.55,-1274.45 280.43,-1284.99 243.5,-1284.99 217.38,-1274.45 217.38,-1259.53 243.5,-1248.99 280.43,-1248.99 306.55,-1259.53"/>
<text text-anchor="middle" x="261.97" y="-1263.49" font-family="Helvetica,sans-Serif" font-size="10.00" fill="#ffffff">sgio.meshio</text>
</g>
<!-- sgio_meshio_hmf&#45;&gt;sgio_meshio -->
<g id="edge18" class="edge">
<title>sgio_meshio_hmf&#45;&gt;sgio_meshio</title><style>.edge>path:hover{stroke-width:8}</style>
<path fill="none" stroke="black" d="M316.17,-1356.88C304.53,-1337.8 289.72,-1313.52 278.53,-1295.16"/>
<polygon fill="#4040c0" stroke="black" points="281.55,-1293.38 273.35,-1286.67 275.57,-1297.03 281.55,-1293.38"/>
</g>
<!-- sgio_io_main -->
<g id="node9" class="node">
<title>sgio_io_main</title><style>.edge>path:hover{stroke-width:8}</style>
<polygon fill="#262673" stroke="black" points="259.55,-263.54 259.55,-278.46 233.43,-289 196.5,-289 170.38,-278.46 170.38,-263.54 196.5,-253 233.43,-253 259.55,-263.54"/>
<text text-anchor="middle" x="214.97" y="-267.5" font-family="Helvetica,sans-Serif" font-size="10.00" fill="#ffffff">sgio.io.main</text>
</g>
<!-- sgio_io__abaqus&#45;&gt;sgio_io_main -->
<g id="edge7" class="edge">
<title>sgio_io__abaqus&#45;&gt;sgio_io_main</title><style>.edge>path:hover{stroke-width:8}</style>
<path fill="none" stroke="black" d="M214.97,-324.8C214.97,-316.87 214.97,-308.46 214.97,-300.74"/>
<polygon fill="#303091" stroke="black" points="218.47,-300.85 214.97,-290.85 211.47,-300.85 218.47,-300.85"/>
</g>
<!-- sgio_io -->
<g id="node16" class="node">
<title>sgio_io</title><style>.edge>path:hover{stroke-width:8}</style>
<polygon fill="#2424d0" stroke="black" points="243.93,-191.54 243.93,-206.46 226.96,-217 202.97,-217 186,-206.46 186,-191.54 202.97,-181 226.96,-181 243.93,-191.54"/>
<text text-anchor="middle" x="214.97" y="-195.5" font-family="Helvetica,sans-Serif" font-size="10.00" fill="#ffffff">sgio.io</text>
</g>
<!-- sgio_io_main&#45;&gt;sgio_io -->
<g id="edge8" class="edge">
<title>sgio_io_main&#45;&gt;sgio_io</title><style>.edge>path:hover{stroke-width:8}</style>
<path fill="none" stroke="black" d="M214.97,-252.7C214.97,-245.41 214.97,-236.73 214.97,-228.54"/>
<polygon fill="#262673" stroke="black" points="218.47,-228.62 214.97,-218.62 211.47,-228.62 218.47,-228.62"/>
</g>
<!-- sgio_meshio_gmsh_main -->
<g id="node10" class="node">
<title>sgio_meshio_gmsh_main</title><style>.edge>path:hover{stroke-width:8}</style>
<polygon fill="#2b2b82" stroke="black" points="468.62,-1370.96 468.62,-1406.47 445.98,-1431.57 413.96,-1431.57 391.31,-1406.47 391.31,-1370.96 413.96,-1345.85 445.98,-1345.85 468.62,-1370.96"/>
<text text-anchor="middle" x="429.97" y="-1403.21" font-family="Helvetica,sans-Serif" font-size="10.00" fill="#ffffff">sgio.</text>
<text text-anchor="middle" x="429.97" y="-1391.21" font-family="Helvetica,sans-Serif" font-size="10.00" fill="#ffffff">meshio.</text>
<text text-anchor="middle" x="429.97" y="-1379.21" font-family="Helvetica,sans-Serif" font-size="10.00" fill="#ffffff">gmsh.</text>
<text text-anchor="middle" x="429.97" y="-1367.21" font-family="Helvetica,sans-Serif" font-size="10.00" fill="#ffffff">main</text>
</g>
<!-- sgio_meshio_gmsh -->
<g id="node23" class="node">
<title>sgio_meshio_gmsh</title><style>.edge>path:hover{stroke-width:8}</style>
<polygon fill="#0c0ce9" stroke="black" points="468.62,-1253.04 468.62,-1280.94 445.98,-1300.67 413.96,-1300.67 391.31,-1280.94 391.31,-1253.04 413.96,-1233.31 445.98,-1233.31 468.62,-1253.04"/>
<text text-anchor="middle" x="429.97" y="-1275.49" font-family="Helvetica,sans-Serif" font-size="10.00" fill="#ffffff">sgio.</text>
<text text-anchor="middle" x="429.97" y="-1263.49" font-family="Helvetica,sans-Serif" font-size="10.00" fill="#ffffff">meshio.</text>
<text text-anchor="middle" x="429.97" y="-1251.49" font-family="Helvetica,sans-Serif" font-size="10.00" fill="#ffffff">gmsh</text>
</g>
<!-- sgio_meshio_gmsh_main&#45;&gt;sgio_meshio_gmsh -->
<g id="edge17" class="edge">
<title>sgio_meshio_gmsh_main&#45;&gt;sgio_meshio_gmsh</title><style>.edge>path:hover{stroke-width:8}</style>
<path fill="none" stroke="black" d="M423.48,-1345.5C423.15,-1334.72 423.13,-1323.11 423.42,-1312.23"/>
<polygon fill="#2b2b82" stroke="black" points="426.92,-1312.44 423.81,-1302.31 419.92,-1312.16 426.92,-1312.44"/>
</g>
<!-- sgio_meshio__cli -->
<g id="node11" class="node">
<title>sgio_meshio__cli</title><style>.edge>path:hover{stroke-width:8}</style>
<polygon fill="#3333cc" stroke="black" points="563.62,-1374.76 563.62,-1402.66 540.98,-1422.39 508.96,-1422.39 486.31,-1402.66 486.31,-1374.76 508.96,-1355.04 540.98,-1355.04 563.62,-1374.76"/>
<text text-anchor="middle" x="524.97" y="-1397.21" font-family="Helvetica,sans-Serif" font-size="10.00" fill="#ffffff">sgio.</text>
<text text-anchor="middle" x="524.97" y="-1385.21" font-family="Helvetica,sans-Serif" font-size="10.00" fill="#ffffff">meshio.</text>
<text text-anchor="middle" x="524.97" y="-1373.21" font-family="Helvetica,sans-Serif" font-size="10.00" fill="#ffffff">_cli</text>
</g>
<!-- sgio_meshio__cli__main -->
<g id="node17" class="node">
<title>sgio_meshio__cli__main</title><style>.edge>path:hover{stroke-width:8}</style>
<polygon fill="#28287a" stroke="black" points="563.62,-1249.24 563.62,-1284.74 540.98,-1309.85 508.96,-1309.85 486.31,-1284.74 486.31,-1249.24 508.96,-1224.13 540.98,-1224.13 563.62,-1249.24"/>
<text text-anchor="middle" x="524.97" y="-1281.49" font-family="Helvetica,sans-Serif" font-size="10.00" fill="#ffffff">sgio.</text>
<text text-anchor="middle" x="524.97" y="-1269.49" font-family="Helvetica,sans-Serif" font-size="10.00" fill="#ffffff">meshio.</text>
<text text-anchor="middle" x="524.97" y="-1257.49" font-family="Helvetica,sans-Serif" font-size="10.00" fill="#ffffff">_cli.</text>
<text text-anchor="middle" x="524.97" y="-1245.49" font-family="Helvetica,sans-Serif" font-size="10.00" fill="#ffffff">_main</text>
</g>
<!-- sgio_meshio__cli&#45;&gt;sgio_meshio__cli__main -->
<g id="edge10" class="edge">
<title>sgio_meshio__cli&#45;&gt;sgio_meshio__cli__main</title><style>.edge>path:hover{stroke-width:8}</style>
<path fill="none" stroke="black" d="M518.86,-1354.68C518.34,-1344.51 518.13,-1333.04 518.25,-1321.84"/>
<polygon fill="#3333cc" stroke="black" points="521.74,-1321.93 518.45,-1311.86 514.75,-1321.79 521.74,-1321.93"/>
</g>
<!-- sgio_meshio_vtk -->
<g id="node12" class="node">
<title>sgio_meshio_vtk</title><style>.edge>path:hover{stroke-width:8}</style>
<polygon fill="#0c0cf3" stroke="black" points="658.62,-1374.76 658.62,-1402.66 635.98,-1422.39 603.96,-1422.39 581.31,-1402.66 581.31,-1374.76 603.96,-1355.04 635.98,-1355.04 658.62,-1374.76"/>
<text text-anchor="middle" x="619.97" y="-1397.21" font-family="Helvetica,sans-Serif" font-size="10.00" fill="#ffffff">sgio.</text>
<text text-anchor="middle" x="619.97" y="-1385.21" font-family="Helvetica,sans-Serif" font-size="10.00" fill="#ffffff">meshio.</text>
<text text-anchor="middle" x="619.97" y="-1373.21" font-family="Helvetica,sans-Serif" font-size="10.00" fill="#ffffff">vtk</text>
</g>
<!-- sgio_meshio_vtk__main -->
<g id="node13" class="node">
<title>sgio_meshio_vtk__main</title><style>.edge>path:hover{stroke-width:8}</style>
<polygon fill="#303091" stroke="black" points="658.62,-1249.24 658.62,-1284.74 635.98,-1309.85 603.96,-1309.85 581.31,-1284.74 581.31,-1249.24 603.96,-1224.13 635.98,-1224.13 658.62,-1249.24"/>
<text text-anchor="middle" x="619.97" y="-1281.49" font-family="Helvetica,sans-Serif" font-size="10.00" fill="#ffffff">sgio.</text>
<text text-anchor="middle" x="619.97" y="-1269.49" font-family="Helvetica,sans-Serif" font-size="10.00" fill="#ffffff">meshio.</text>
<text text-anchor="middle" x="619.97" y="-1257.49" font-family="Helvetica,sans-Serif" font-size="10.00" fill="#ffffff">vtk.</text>
<text text-anchor="middle" x="619.97" y="-1245.49" font-family="Helvetica,sans-Serif" font-size="10.00" fill="#ffffff">_main</text>
</g>
<!-- sgio_meshio_vtk&#45;&gt;sgio_meshio_vtk__main -->
<g id="edge22" class="edge">
<title>sgio_meshio_vtk&#45;&gt;sgio_meshio_vtk__main</title><style>.edge>path:hover{stroke-width:8}</style>
<path fill="none" stroke="black" d="M613.86,-1354.68C613.34,-1344.51 613.13,-1333.04 613.25,-1321.84"/>
<polygon fill="#0c0cf3" stroke="black" points="616.74,-1321.93 613.45,-1311.86 609.75,-1321.79 616.74,-1321.93"/>
</g>
<!-- sgio_meshio_vtk__main&#45;&gt;sgio_meshio_vtk -->
<g id="edge23" class="edge">
<title>sgio_meshio_vtk__main&#45;&gt;sgio_meshio_vtk</title><style>.edge>path:hover{stroke-width:8}</style>
<path fill="none" stroke="black" d="M626.45,-1310.35C626.78,-1321.04 626.8,-1332.55 626.51,-1343.33"/>
<polygon fill="#303091" stroke="black" points="623.02,-1343.04 626.13,-1353.17 630.01,-1343.31 623.02,-1343.04"/>
</g>
<!-- sgio_meshio_sg&#45;&gt;sgio_meshio_sg_main -->
<g id="edge20" class="edge">
<title>sgio_meshio_sg&#45;&gt;sgio_meshio_sg_main</title><style>.edge>path:hover{stroke-width:8}</style>
<path fill="none" stroke="black" d="M150.87,-1285.23C152.27,-1298.11 152.87,-1316.46 152.68,-1334.09"/>
<polygon fill="#3333cc" stroke="black" points="149.19,-1333.92 152.48,-1343.99 156.18,-1334.06 149.19,-1333.92"/>
</g>
<!-- sgio -->
<g id="node18" class="node">
<title>sgio</title><style>.edge>path:hover{stroke-width:8}</style>
<polygon fill="#030395" stroke="black" points="241.97,-688.25 241.97,-703.16 226.15,-713.7 203.78,-713.7 187.97,-703.16 187.97,-688.25 203.78,-677.7 226.15,-677.7 241.97,-688.25"/>
<text text-anchor="middle" x="214.97" y="-692.2" font-family="Helvetica,sans-Serif" font-size="10.00" fill="#ffffff">sgio</text>
</g>
<!-- sgio_core_sg&#45;&gt;sgio -->
<g id="edge5" class="edge">
<title>sgio_core_sg&#45;&gt;sgio</title><style>.edge>path:hover{stroke-width:8}</style>
<path fill="none" stroke="black" d="M214.97,-786.51C214.97,-769.98 214.97,-744.68 214.97,-725.14"/>
<polygon fill="#0505db" stroke="black" points="218.47,-725.37 214.97,-715.37 211.47,-725.37 218.47,-725.37"/>
</g>
<!-- sgio_io&#45;&gt;sgio_app -->
<g id="edge6" class="edge">
<title>sgio_io&#45;&gt;sgio_app</title><style>.edge>path:hover{stroke-width:8}</style>
<path fill="none" stroke="black" d="M214.97,-180.7C214.97,-173.41 214.97,-164.73 214.97,-156.54"/>
<polygon fill="#2424d0" stroke="black" points="218.47,-156.62 214.97,-146.62 211.47,-156.62 218.47,-156.62"/>
</g>
<!-- sgio_meshio__cli__main&#45;&gt;sgio_meshio__cli -->
<g id="edge11" class="edge">
<title>sgio_meshio__cli__main&#45;&gt;sgio_meshio__cli</title><style>.edge>path:hover{stroke-width:8}</style>
<path fill="none" stroke="black" d="M531.45,-1310.35C531.78,-1321.04 531.8,-1332.55 531.51,-1343.33"/>
<polygon fill="#28287a" stroke="black" points="528.02,-1343.04 531.13,-1353.17 535.01,-1343.31 528.02,-1343.04"/>
</g>
<!-- sgio_model_general -->
<g id="node24" class="node">
<title>sgio_model_general</title><style>.edge>path:hover{stroke-width:8}</style>
<polygon fill="#2f2fbc" stroke="black" points="251.32,-557.08 251.32,-584.98 230.02,-604.7 199.91,-604.7 178.61,-584.98 178.61,-557.08 199.91,-537.35 230.02,-537.35 251.32,-557.08"/>
<text text-anchor="middle" x="214.97" y="-579.53" font-family="Helvetica,sans-Serif" font-size="10.00" fill="#ffffff">sgio.</text>
<text text-anchor="middle" x="214.97" y="-567.53" font-family="Helvetica,sans-Serif" font-size="10.00" fill="#ffffff">model.</text>
<text text-anchor="middle" x="214.97" y="-555.53" font-family="Helvetica,sans-Serif" font-size="10.00" fill="#ffffff">general</text>
</g>
<!-- sgio&#45;&gt;sgio_model_general -->
<g id="edge3" class="edge">
<title>sgio&#45;&gt;sgio_model_general</title><style>.edge>path:hover{stroke-width:8}</style>
<path fill="none" stroke="black" d="M214.97,-677.39C214.97,-661.56 214.97,-637.47 214.97,-616.32"/>
<polygon fill="#030395" stroke="black" points="218.47,-616.45 214.97,-606.45 211.47,-616.45 218.47,-616.45"/>
</g>
<!-- rich_console -->
<g id="node19" class="node">
<title>rich_console</title><style>.edge>path:hover{stroke-width:8}</style>
<polygon fill="#40c040" stroke="black" points="89.55,-1381.26 89.55,-1396.17 63.43,-1406.71 26.5,-1406.71 0.38,-1396.17 0.38,-1381.26 26.5,-1370.71 63.43,-1370.71 89.55,-1381.26"/>
<text text-anchor="middle" x="44.97" y="-1385.21" font-family="Helvetica,sans-Serif" font-size="10.00" fill="#000000">rich.console</text>
</g>
<!-- rich -->
<g id="node25" class="node">
<title>rich</title><style>.edge>path:hover{stroke-width:8}</style>
<polygon fill="#31c431" stroke="black" points="71.97,-1259.53 71.97,-1274.45 56.15,-1284.99 33.78,-1284.99 17.97,-1274.45 17.97,-1259.53 33.78,-1248.99 56.15,-1248.99 71.97,-1259.53"/>
<text text-anchor="middle" x="44.97" y="-1263.49" font-family="Helvetica,sans-Serif" font-size="10.00" fill="#000000">rich</text>
</g>
<!-- rich_console&#45;&gt;rich -->
<g id="edge2" class="edge">
<title>rich_console&#45;&gt;rich</title><style>.edge>path:hover{stroke-width:8}</style>
<path fill="none" stroke="black" d="M44.97,-1370.3C44.97,-1351.06 44.97,-1319.77 44.97,-1296.85"/>
<polygon fill="#40c040" stroke="black" points="48.47,-1296.93 44.97,-1286.93 41.47,-1296.93 48.47,-1296.93"/>
</g>
<!-- sgio_meshio__cxml -->
<g id="node20" class="node">
<title>sgio_meshio__cxml</title><style>.edge>path:hover{stroke-width:8}</style>
<polygon fill="#2d2db4" stroke="black" points="753.62,-1374.76 753.62,-1402.66 730.98,-1422.39 698.96,-1422.39 676.31,-1402.66 676.31,-1374.76 698.96,-1355.04 730.98,-1355.04 753.62,-1374.76"/>
<text text-anchor="middle" x="714.97" y="-1397.21" font-family="Helvetica,sans-Serif" font-size="10.00" fill="#ffffff">sgio.</text>
<text text-anchor="middle" x="714.97" y="-1385.21" font-family="Helvetica,sans-Serif" font-size="10.00" fill="#ffffff">meshio.</text>
<text text-anchor="middle" x="714.97" y="-1373.21" font-family="Helvetica,sans-Serif" font-size="10.00" fill="#ffffff">_cxml</text>
</g>
<!-- sgio_meshio_hmf__hmf -->
<g id="node26" class="node">
<title>sgio_meshio_hmf__hmf</title><style>.edge>path:hover{stroke-width:8}</style>
<polygon fill="#303091" stroke="black" points="373.62,-1090.52 373.62,-1126.02 350.98,-1151.13 318.96,-1151.13 296.31,-1126.02 296.31,-1090.52 318.96,-1065.41 350.98,-1065.41 373.62,-1090.52"/>
<text text-anchor="middle" x="334.97" y="-1122.77" font-family="Helvetica,sans-Serif" font-size="10.00" fill="#ffffff">sgio.</text>
<text text-anchor="middle" x="334.97" y="-1110.77" font-family="Helvetica,sans-Serif" font-size="10.00" fill="#ffffff">meshio.</text>
<text text-anchor="middle" x="334.97" y="-1098.77" font-family="Helvetica,sans-Serif" font-size="10.00" fill="#ffffff">hmf.</text>
<text text-anchor="middle" x="334.97" y="-1086.77" font-family="Helvetica,sans-Serif" font-size="10.00" fill="#ffffff">_hmf</text>
</g>
<!-- sgio_meshio&#45;&gt;sgio_meshio_hmf__hmf -->
<g id="edge9" class="edge">
<title>sgio_meshio&#45;&gt;sgio_meshio_hmf__hmf</title><style>.edge>path:hover{stroke-width:8}</style>
<path fill="none" stroke="black" d="M270.06,-1248.62C280.06,-1227.14 297.52,-1189.66 311.81,-1158.97"/>
<polygon fill="#030395" stroke="black" points="314.83,-1160.78 315.88,-1150.23 308.49,-1157.82 314.83,-1160.78"/>
</g>
<!-- sgio_meshio__common -->
<g id="node22" class="node">
<title>sgio_meshio__common</title><style>.edge>path:hover{stroke-width:8}</style>
<polygon fill="#0505e5" stroke="black" points="89.93,-981.78 89.93,-1009.68 63.59,-1029.41 26.34,-1029.41 0,-1009.68 0,-981.78 26.34,-962.06 63.59,-962.06 89.93,-981.78"/>
<text text-anchor="middle" x="44.97" y="-1004.23" font-family="Helvetica,sans-Serif" font-size="10.00" fill="#ffffff">sgio.</text>
<text text-anchor="middle" x="44.97" y="-992.23" font-family="Helvetica,sans-Serif" font-size="10.00" fill="#ffffff">meshio.</text>
<text text-anchor="middle" x="44.97" y="-980.23" font-family="Helvetica,sans-Serif" font-size="10.00" fill="#ffffff">_common</text>
</g>
<!-- sgio_meshio__common&#45;&gt;sgio_meshio__helpers -->
<g id="edge12" class="edge">
<title>sgio_meshio__common&#45;&gt;sgio_meshio__helpers</title><style>.edge>path:hover{stroke-width:8}</style>
<path fill="none" stroke="black" d="M72.03,-967.84C84.64,-955.31 99.78,-940.27 113.13,-927"/>
<polygon fill="#0505e5" stroke="black" points="115.48,-929.6 120.11,-920.07 110.55,-924.63 115.48,-929.6"/>
</g>
<!-- sgio_meshio_gmsh&#45;&gt;sgio_meshio_gmsh_main -->
<g id="edge16" class="edge">
<title>sgio_meshio_gmsh&#45;&gt;sgio_meshio_gmsh_main</title><style>.edge>path:hover{stroke-width:8}</style>
<path fill="none" stroke="black" d="M436.06,-1300.8C436.6,-1311.15 436.8,-1322.86 436.68,-1334.27"/>
<polygon fill="#0c0ce9" stroke="black" points="433.19,-1333.92 436.48,-1343.99 440.19,-1334.06 433.19,-1333.92"/>
</g>
<!-- sgio_model_general&#45;&gt;sgio_model -->
<g id="edge25" class="edge">
<title>sgio_model_general&#45;&gt;sgio_model</title><style>.edge>path:hover{stroke-width:8}</style>
<path fill="none" stroke="black" d="M214.97,-537.15C214.97,-529.22 214.97,-520.81 214.97,-513.09"/>
<polygon fill="#2f2fbc" stroke="black" points="218.47,-513.2 214.97,-503.2 211.47,-513.2 218.47,-513.2"/>
</g>
<!-- rich&#45;&gt;sgio_meshio__common -->
<g id="edge1" class="edge">
<title>rich&#45;&gt;sgio_meshio__common</title><style>.edge>path:hover{stroke-width:8}</style>
<path fill="none" stroke="black" d="M44.97,-1248.74C44.97,-1207.39 44.97,-1101.58 44.97,-1041.03"/>
<polygon fill="#31c431" stroke="black" points="48.47,-1041.07 44.97,-1031.07 41.47,-1041.07 48.47,-1041.07"/>
</g>
<!-- sgio_meshio_hmf__hmf&#45;&gt;sgio_meshio_hmf -->
<g id="edge19" class="edge">
<title>sgio_meshio_hmf__hmf&#45;&gt;sgio_meshio_hmf</title><style>.edge>path:hover{stroke-width:8}</style>
<path fill="none" stroke="black" d="M334.97,-1151.33C334.97,-1203.08 334.97,-1290.54 334.97,-1343.33"/>
<polygon fill="#303091" stroke="black" points="331.47,-1343.16 334.97,-1353.16 338.47,-1343.16 331.47,-1343.16"/>
</g>
</g>
</svg>
