$MeshFormat
4.1 0 8
$EndMeshFormat
$PhysicalNames
1
2 1 "simple_wall_ply_1"
$EndPhysicalNames
$Entities
6 6 1 0
1 0 0 0 0 
2 1 0 0 0 
3 2 1 0 0 
4 1.92928932188135 1.07071067811866 0 0 
5 0.95857864376269 0.1 0 0 
6 0 0.1 0 0 
1 -9.999999994736442e-08 -1e-07 -1e-07 1.0000001 1e-07 1e-07 0 2 1 -2 
2 0.9999999000000001 -9.999999994736442e-08 -1e-07 2.000000100000003 1.000000100000004 1e-07 0 2 2 -3 
3 1.929289221881345 0.9999999000000001 -1e-07 2.0000001 1.070710778118655 1e-07 0 2 3 -4 
4 0.9585785437626875 0.09999989999999709 -1e-07 1.929289421881345 1.070710778118655 1e-07 0 2 4 -5 
5 -1.000000004469648e-07 0.0999999 -1e-07 0.9585787437626905 0.1000001 1e-07 0 2 5 -6 
6 -1e-07 -1.000000000028756e-07 -1e-07 1e-07 0.1000001 1e-07 0 2 1 -6 
1 -1.000000005024759e-07 -9.999999994736442e-08 -1e-07 2.000000100000003 1.070710778118655 1e-07 1 1 6 1 2 3 4 5 -6 
$EndEntities
$Nodes
11 53 1 53
0 1 0 1
1
0 0 0
0 2 0 1
2
1 0 0
0 3 0 1
3
2 1 0
0 4 0 1
4
1.92928932188135 1.07071067811866 0
0 5 0 1
5
0.95857864376269 0.1 0
0 6 0 1
6
0 0.1 0
1 1 0 9
7
8
9
10
11
12
13
14
15
0.1 0 0
0.2 0 0
0.3 0 0
0.4 0 0
0.5 0 0
0.6 0 0
0.7 0 0
0.8 0 0
0.9 0 0
1 2 0 14
16
17
18
19
20
21
22
23
24
25
26
27
28
29
1.066666666666667 0.0666666666666669 0
1.133333333333334 0.1333333333333338 0
1.200000000000001 0.2000000000000006 0
1.266666666666667 0.2666666666666674 0
1.333333333333334 0.3333333333333344 0
1.400000000000001 0.4000000000000014 0
1.466666666666668 0.4666666666666683 0
1.533333333333335 0.5333333333333351 0
1.600000000000002 0.6000000000000021 0
1.666666666666669 0.6666666666666692 0
1.733333333333336 0.7333333333333362 0
1.800000000000003 0.800000000000003 0
1.86666666666667 0.8666666666666698 0
1.933333333333337 0.9333333333333367 0
1 4 0 13
30
31
32
33
34
35
36
37
38
39
40
41
42
1.85995284487287 1.00137420111018 0
1.790616367864394 0.9320377241017043 0
1.721279890855919 0.8627012470932288 0
1.651943413847444 0.7933647700847534 0
1.582606936838968 0.7240282930762781 0
1.513270459830493 0.6546918160678026 0
1.443933982822017 0.5853553390593271 0
1.374597505813542 0.5160188620508518 0
1.305261028805067 0.4466823850423762 0
1.235924551796591 0.3773459080339003 0
1.166588074788115 0.3080094310254246 0
1.097251597779639 0.2386729540169489 0
1.027915120771163 0.169336477008473 0
1 5 0 9
43
44
45
46
47
48
49
50
51
0.8627207793864216 0.1 0
0.7668629150101527 0.1 0
0.6710050506338836 0.1 0
0.5751471862576144 0.1 0
0.4792893218813453 0.1 0
0.3834314575050761 0.1 0
0.287573593128807 0.1 0
0.1917157287525378 0.1 0
0.09585786437626864 0.1 0
2 1 0 2
52
53
1.931311327607345 1.002022005725995 0
0.04792893218813377 0.05000000000000099 0
$EndNodes
$Elements
1 53 1 53
2 1 2 53
1 28 29 30 
2 31 28 30 
3 51 7 50 
4 27 28 31 
5 50 7 8 
6 32 27 31 
7 50 8 49 
8 26 27 32 
9 49 8 9 
10 33 26 32 
11 25 26 33 
12 49 9 48 
13 34 25 33 
14 48 9 10 
15 24 25 34 
16 48 10 47 
17 35 24 34 
18 47 10 11 
19 23 24 35 
20 36 23 35 
21 47 11 46 
22 22 23 36 
23 46 11 12 
24 37 22 36 
25 46 12 45 
26 21 22 37 
27 2 5 15 
28 38 21 37 
29 45 12 13 
30 42 5 16 
31 16 5 2 
32 20 21 38 
33 39 20 38 
34 45 13 44 
35 19 20 39 
36 13 14 44 
37 40 19 39 
38 41 18 40 
39 42 17 41 
40 18 19 40 
41 16 17 42 
42 17 18 41 
43 44 14 43 
44 43 14 15 
45 15 5 43 
46 4 52 3 
47 29 52 30 
48 1 53 6 
49 51 53 7 
50 7 53 1 
51 30 52 4 
52 3 52 29 
53 6 53 51 
$EndElements
$ElementData
1
"element_local_csys"
1
0.0
3
0
9
53
1 0.0 0.0 1.0 0.7071067811865476 0.7071067811865476 0.0 0.0 0.0 0.0
2 0.0 0.0 1.0 0.7071067811865476 0.7071067811865476 0.0 0.0 0.0 0.0
3 0.0 0.0 1.0 1.0 0.0 0.0 0.0 0.0 0.0
4 0.0 0.0 1.0 0.7071067811865476 0.7071067811865476 0.0 0.0 0.0 0.0
5 0.0 0.0 1.0 1.0 0.0 0.0 0.0 0.0 0.0
6 0.0 0.0 1.0 0.7071067811865476 0.7071067811865476 0.0 0.0 0.0 0.0
7 0.0 0.0 1.0 1.0 0.0 0.0 0.0 0.0 0.0
8 0.0 0.0 1.0 0.7071067811865476 0.7071067811865476 0.0 0.0 0.0 0.0
9 0.0 0.0 1.0 1.0 0.0 0.0 0.0 0.0 0.0
10 0.0 0.0 1.0 0.7071067811865476 0.7071067811865476 0.0 0.0 0.0 0.0
11 0.0 0.0 1.0 0.7071067811865476 0.7071067811865476 0.0 0.0 0.0 0.0
12 0.0 0.0 1.0 1.0 0.0 0.0 0.0 0.0 0.0
13 0.0 0.0 1.0 0.7071067811865476 0.7071067811865476 0.0 0.0 0.0 0.0
14 0.0 0.0 1.0 1.0 0.0 0.0 0.0 0.0 0.0
15 0.0 0.0 1.0 0.7071067811865476 0.7071067811865476 0.0 0.0 0.0 0.0
16 0.0 0.0 1.0 1.0 0.0 0.0 0.0 0.0 0.0
17 0.0 0.0 1.0 0.7071067811865476 0.7071067811865476 0.0 0.0 0.0 0.0
18 0.0 0.0 1.0 1.0 0.0 0.0 0.0 0.0 0.0
19 0.0 0.0 1.0 0.7071067811865476 0.7071067811865476 0.0 0.0 0.0 0.0
20 0.0 0.0 1.0 0.7071067811865476 0.7071067811865476 0.0 0.0 0.0 0.0
21 0.0 0.0 1.0 1.0 0.0 0.0 0.0 0.0 0.0
22 0.0 0.0 1.0 0.7071067811865476 0.7071067811865476 0.0 0.0 0.0 0.0
23 0.0 0.0 1.0 1.0 0.0 0.0 0.0 0.0 0.0
24 0.0 0.0 1.0 0.7071067811865476 0.7071067811865476 0.0 0.0 0.0 0.0
25 0.0 0.0 1.0 1.0 0.0 0.0 0.0 0.0 0.0
26 0.0 0.0 1.0 0.7071067811865476 0.7071067811865476 0.0 0.0 0.0 0.0
27 0.0 0.0 1.0 1.0 0.0 0.0 0.0 0.0 0.0
28 0.0 0.0 1.0 0.7071067811865476 0.7071067811865476 0.0 0.0 0.0 0.0
29 0.0 0.0 1.0 1.0 0.0 0.0 0.0 0.0 0.0
30 0.0 0.0 1.0 0.7071067811865476 0.7071067811865476 0.0 0.0 0.0 0.0
31 0.0 0.0 1.0 0.7071067811865476 0.7071067811865476 0.0 0.0 0.0 0.0
32 0.0 0.0 1.0 0.7071067811865476 0.7071067811865476 0.0 0.0 0.0 0.0
33 0.0 0.0 1.0 0.7071067811865476 0.7071067811865476 0.0 0.0 0.0 0.0
34 0.0 0.0 1.0 1.0 0.0 0.0 0.0 0.0 0.0
35 0.0 0.0 1.0 0.7071067811865476 0.7071067811865476 0.0 0.0 0.0 0.0
36 0.0 0.0 1.0 1.0 0.0 0.0 0.0 0.0 0.0
37 0.0 0.0 1.0 0.7071067811865476 0.7071067811865476 0.0 0.0 0.0 0.0
38 0.0 0.0 1.0 0.7071067811865476 0.7071067811865476 0.0 0.0 0.0 0.0
39 0.0 0.0 1.0 0.7071067811865476 0.7071067811865476 0.0 0.0 0.0 0.0
40 0.0 0.0 1.0 0.7071067811865476 0.7071067811865476 0.0 0.0 0.0 0.0
41 0.0 0.0 1.0 0.7071067811865476 0.7071067811865476 0.0 0.0 0.0 0.0
42 0.0 0.0 1.0 0.7071067811865476 0.7071067811865476 0.0 0.0 0.0 0.0
43 0.0 0.0 1.0 1.0 0.0 0.0 0.0 0.0 0.0
44 0.0 0.0 1.0 1.0 0.0 0.0 0.0 0.0 0.0
45 0.0 0.0 1.0 1.0 0.0 0.0 0.0 0.0 0.0
46 0.0 0.0 1.0 0.7071067811865476 0.7071067811865476 0.0 0.0 0.0 0.0
47 0.0 0.0 1.0 0.7071067811865476 0.7071067811865476 0.0 0.0 0.0 0.0
48 0.0 0.0 1.0 1.0 0.0 0.0 0.0 0.0 0.0
49 0.0 0.0 1.0 1.0 0.0 0.0 0.0 0.0 0.0
50 0.0 0.0 1.0 1.0 0.0 0.0 0.0 0.0 0.0
51 0.0 0.0 1.0 0.7071067811865476 0.7071067811865476 0.0 0.0 0.0 0.0
52 0.0 0.0 1.0 0.7071067811865476 0.7071067811865476 0.0 0.0 0.0 0.0
53 0.0 0.0 1.0 1.0 0.0 0.0 0.0 0.0 0.0
$EndElementData
$ElementData
1
"additional_rotation_2"
1
0.0
3
0
1
53
1 30.0
2 30.0
3 30.0
4 30.0
5 30.0
6 30.0
7 30.0
8 30.0
9 30.0
10 30.0
11 30.0
12 30.0
13 30.0
14 30.0
15 30.0
16 30.0
17 30.0
18 30.0
19 30.0
20 30.0
21 30.0
22 30.0
23 30.0
24 30.0
25 30.0
26 30.0
27 30.0
28 30.0
29 30.0
30 30.0
31 30.0
32 30.0
33 30.0
34 30.0
35 30.0
36 30.0
37 30.0
38 30.0
39 30.0
40 30.0
41 30.0
42 30.0
43 30.0
44 30.0
45 30.0
46 30.0
47 30.0
48 30.0
49 30.0
50 30.0
51 30.0
52 30.0
53 30.0
$EndElementData
