<svg width="2477" height="1045" xmlns="http://www.w3.org/2000/svg" xmlns:xlink="http://www.w3.org/1999/xlink" xml:space="preserve" overflow="hidden"><g transform="translate(-1123 -789)"><path d="M1866.5 855.047C1866.5 819.951 1894.95 791.5 1930.05 791.5L2582.95 791.5C2618.05 791.5 2646.5 819.951 2646.5 855.047L2646.5 1767.95C2646.5 1803.05 2618.05 1831.5 2582.95 1831.5L1930.05 1831.5C1894.95 1831.5 1866.5 1803.05 1866.5 1767.95Z" stroke="#D41F27" stroke-width="4.58333" stroke-miterlimit="8" fill="#FFFFFF" fill-rule="evenodd"/><text fill="#D41F27" font-family="Source Sans Pro,Source Sans Pro_MSFontService,sans-serif" font-weight="700" font-size="83" transform="matrix(1 0 0 1 2166.19 904)">SGIO</text><rect x="1314" y="918" width="229" height="122" fill="#E0E0E0"/><text font-family="Source Sans Pro,Source Sans Pro_MSFontService,sans-serif" font-weight="400" font-size="73" transform="matrix(1 0 0 1 1347.47 1003)">VABS</text><rect x="3147" y="1390" width="351" height="122" fill="#E0E0E0"/><text font-family="Source Sans Pro,Source Sans Pro_MSFontService,sans-serif" font-weight="400" font-size="73" transform="matrix(1 0 0 1 3180.16 1475)">Paraview</text><rect x="3147" y="824" width="246" height="122" fill="#E0E0E0"/><text font-family="Source Sans Pro,Source Sans Pro_MSFontService,sans-serif" font-weight="400" font-size="73" transform="matrix(1 0 0 1 3180.16 909)">Gmsh</text><rect x="3147" y="1107" width="446" height="122" fill="#E0E0E0"/><text font-family="Source Sans Pro,Source Sans Pro_MSFontService,sans-serif" font-weight="400" font-size="73" transform="matrix(1 0 0 1 3180.16 1192)">Abaqus/CAE</text><rect x="3147" y="1673" width="137" height="122" fill="#E0E0E0"/><text font-family="Source Sans Pro,Source Sans Pro_MSFontService,sans-serif" font-weight="400" font-size="73" transform="matrix(1 0 0 1 3180.16 1758)">…</text><rect x="1135" y="1551" width="408" height="122" fill="#E0E0E0"/><text font-family="Source Sans Pro,Source Sans Pro_MSFontService,sans-serif" font-weight="400" font-size="73" transform="matrix(1 0 0 1 1167.55 1636)">SwiftComp</text><path d="M1566.42 977.208 1707.58 977.208 1707.58 1311.56 1705.29 1309.27 1844.16 1309.27 1844.16 1313.85 1703 1313.85 1703 979.5 1705.29 981.792 1566.42 981.792ZM1571 993.25 1543.5 979.5 1571 965.75ZM1839.57 1297.81 1867.07 1311.56 1839.57 1325.31Z" fill="#D41F27"/><path d="M22.9167-2.29167 164.079-2.29167 164.079 300.646 161.787 298.354 300.658 298.354 300.658 302.938 159.496 302.938 159.496 0 161.787 2.29167 22.9167 2.29167ZM27.5 13.75 0 0 27.5-13.75ZM296.075 286.896 323.575 300.646 296.075 314.396Z" fill="#D41F27" transform="matrix(1 0 0 -1 1543.5 1612.15)"/><path d="M1618.5 1043.5 1791.5 1043.5 1791.5 1153.5 1769.5 1175.5 1618.5 1175.5Z" fill="#FFFFFF" fill-rule="evenodd"/><path d="M1769.5 1175.5 1773.9 1157.9 1791.5 1153.5Z" fill="#CDCDCD" fill-rule="evenodd"/><path d="M1769.5 1175.5 1773.9 1157.9 1791.5 1153.5 1769.5 1175.5 1618.5 1175.5 1618.5 1043.5 1791.5 1043.5 1791.5 1153.5" stroke="#E0E0E0" stroke-width="3.4375" stroke-linejoin="round" stroke-miterlimit="10" fill="none" fill-rule="evenodd"/><text font-family="Source Sans Pro,Source Sans Pro_MSFontService,sans-serif" font-weight="400" font-size="64" transform="matrix(1 0 0 1 1650.76 1119)">.</text><text font-family="Source Sans Pro,Source Sans Pro_MSFontService,sans-serif" font-weight="400" font-size="64" transform="matrix(1 0 0 1 1666.8 1119)">dat</text><path d="M1633.5 1418.5 1776.5 1418.5 1776.5 1529.33 1754.33 1551.5 1633.5 1551.5Z" fill="#FFFFFF" fill-rule="evenodd"/><path d="M1754.33 1551.5 1758.77 1533.77 1776.5 1529.33Z" fill="#CDCDCD" fill-rule="evenodd"/><path d="M1754.33 1551.5 1758.77 1533.77 1776.5 1529.33 1754.33 1551.5 1633.5 1551.5 1633.5 1418.5 1776.5 1418.5 1776.5 1529.33" stroke="#E0E0E0" stroke-width="3.4375" stroke-linejoin="round" stroke-miterlimit="10" fill="none" fill-rule="evenodd"/><text font-family="Source Sans Pro,Source Sans Pro_MSFontService,sans-serif" font-weight="400" font-size="64" transform="matrix(1 0 0 1 1666.09 1494)">.</text><text font-family="Source Sans Pro,Source Sans Pro_MSFontService,sans-serif" font-weight="400" font-size="64" transform="matrix(1 0 0 1 1682.13 1494)">sg</text><path d="M22.9167-2.29167 127.663-2.29167 127.663 426.089 125.371 423.797 478.627 423.797 478.627 428.381 123.079 428.381 123.079 0 125.371 2.29167 22.9167 2.29167ZM27.5 13.75 0 0 27.5-13.75ZM474.043 412.339 501.543 426.089 474.043 439.839Z" fill="#D41F27" transform="matrix(1 0 0 -1 2646.5 1311.59)"/><path d="M22.9167-2.29167 127.663-2.29167 127.663 143.117 125.371 140.825 478.627 140.825 478.627 145.409 123.079 145.409 123.079 0 125.371 2.29167 22.9167 2.29167ZM27.5 13.75 0 0 27.5-13.75ZM474.043 129.367 501.543 143.117 474.043 156.867Z" fill="#D41F27" transform="matrix(1 0 0 -1 2646.5 1311.62)"/><path d="M2669.42 1309.21 2774.16 1309.21 2774.16 1451.36 2771.87 1449.06 3125.13 1449.06 3125.13 1453.65 2769.58 1453.65 2769.58 1311.5 2771.87 1313.79 2669.42 1313.79ZM2674 1325.25 2646.5 1311.5 2674 1297.75ZM3120.54 1437.61 3148.04 1451.36 3120.54 1465.11Z" fill="#D41F27"/><path d="M2669.42 1309.21 2774.16 1309.21 2774.16 1734.33 2771.87 1732.04 3125.13 1732.04 3125.13 1736.62 2769.58 1736.62 2769.58 1311.5 2771.87 1313.79 2669.42 1313.79ZM2674 1325.25 2646.5 1311.5 2674 1297.75ZM3120.54 1720.58 3148.04 1734.33 3120.54 1748.08Z" fill="#D41F27"/><path d="M2844.5 823.5 3043.5 823.5 3043.5 934.333 3021.33 956.5 2844.5 956.5Z" fill="#FFFFFF" fill-rule="evenodd"/><path d="M3021.33 956.5 3025.77 938.766 3043.5 934.333Z" fill="#CDCDCD" fill-rule="evenodd"/><path d="M3021.33 956.5 3025.77 938.766 3043.5 934.333 3021.33 956.5 2844.5 956.5 2844.5 823.5 3043.5 823.5 3043.5 934.333" stroke="#E0E0E0" stroke-width="3.4375" stroke-linejoin="round" stroke-miterlimit="10" fill="none" fill-rule="evenodd"/><text font-family="Source Sans Pro,Source Sans Pro_MSFontService,sans-serif" font-weight="400" font-size="64" transform="matrix(1 0 0 1 2876.6 900)">.</text><text font-family="Source Sans Pro,Source Sans Pro_MSFontService,sans-serif" font-weight="400" font-size="64" transform="matrix(1 0 0 1 2892.64 900)">msh</text><path d="M2858.5 1088.5 3028.5 1088.5 3028.5 1199.33 3006.33 1221.5 2858.5 1221.5Z" fill="#FFFFFF" fill-rule="evenodd"/><path d="M3006.33 1221.5 3010.77 1203.77 3028.5 1199.33Z" fill="#CDCDCD" fill-rule="evenodd"/><path d="M3006.33 1221.5 3010.77 1203.77 3028.5 1199.33 3006.33 1221.5 2858.5 1221.5 2858.5 1088.5 3028.5 1088.5 3028.5 1199.33" stroke="#E0E0E0" stroke-width="3.4375" stroke-linejoin="round" stroke-miterlimit="10" fill="none" fill-rule="evenodd"/><text font-family="Source Sans Pro,Source Sans Pro_MSFontService,sans-serif" font-weight="400" font-size="64" transform="matrix(1 0 0 1 2891.06 1165)">.</text><text font-family="Source Sans Pro,Source Sans Pro_MSFontService,sans-serif" font-weight="400" font-size="64" transform="matrix(1 0 0 1 2907.1 1165)">inp</text><path d="M2858.5 1388.5 3025.5 1388.5 3025.5 1498.5 3003.5 1520.5 2858.5 1520.5Z" fill="#FFFFFF" fill-rule="evenodd"/><path d="M3003.5 1520.5 3007.9 1502.9 3025.5 1498.5Z" fill="#CDCDCD" fill-rule="evenodd"/><path d="M3003.5 1520.5 3007.9 1502.9 3025.5 1498.5 3003.5 1520.5 2858.5 1520.5 2858.5 1388.5 3025.5 1388.5 3025.5 1498.5" stroke="#E0E0E0" stroke-width="3.4375" stroke-linejoin="round" stroke-miterlimit="10" fill="none" fill-rule="evenodd"/><text font-family="Source Sans Pro,Source Sans Pro_MSFontService,sans-serif" font-weight="400" font-size="64" transform="matrix(1 0 0 1 2891.06 1464)">.</text><text font-family="Source Sans Pro,Source Sans Pro_MSFontService,sans-serif" font-weight="400" font-size="64" transform="matrix(1 0 0 1 2907.1 1464)">vtk</text><path d="M1905.07 1154.45 2606.64 1154.45 2606.64 1341.45 1905.07 1341.45Z" fill="#7F7F7F" fill-rule="evenodd"/><path d="M1905.07 1341.45 2606.64 1341.45 2606.64 1770.45 1905.07 1770.45Z" fill="#F2F2F2" fill-rule="evenodd"/><text fill="#FFFFFF" font-family="Source Sans Pro,Source Sans Pro_MSFontService,sans-serif" font-weight="400" font-size="64" transform="matrix(1 0 0 1 2062.78 1231)">Cross</text><text fill="#FFFFFF" font-family="Source Sans Pro,Source Sans Pro_MSFontService,sans-serif" font-weight="400" font-size="64" transform="matrix(1 0 0 1 2210.59 1231)">-</text><text fill="#FFFFFF" font-family="Source Sans Pro,Source Sans Pro_MSFontService,sans-serif" font-weight="400" font-size="64" transform="matrix(1 0 0 1 2230.65 1231)">section/</text><text fill="#FFFFFF" font-family="Source Sans Pro,Source Sans Pro_MSFontService,sans-serif" font-weight="400" font-size="64" transform="matrix(1 0 0 1 1984.29 1308)">Structure Gene Data</text><g><text font-family="Source Sans Pro,Source Sans Pro_MSFontService,sans-serif" font-weight="400" font-size="55" transform="matrix(1 0 0 1 1938.07 1410)">-</text></g><text font-family="Source Sans Pro,Source Sans Pro_MSFontService,sans-serif" font-weight="400" font-size="55" transform="matrix(1 0 0 1 2041.19 1410)">Meshing data</text><g><text font-family="Source Sans Pro,Source Sans Pro_MSFontService,sans-serif" font-weight="400" font-size="55" transform="matrix(1 0 0 1 1938.07 1476)">-</text></g><text font-family="Source Sans Pro,Source Sans Pro_MSFontService,sans-serif" font-weight="400" font-size="55" transform="matrix(1 0 0 1 2041.19 1476)">Materials</text><g><text font-family="Source Sans Pro,Source Sans Pro_MSFontService,sans-serif" font-weight="400" font-size="55" transform="matrix(1 0 0 1 1938.07 1542)">-</text></g><text font-family="Source Sans Pro,Source Sans Pro_MSFontService,sans-serif" font-weight="400" font-size="55" transform="matrix(1 0 0 1 2041.19 1542)">Local orientations</text><g><text font-family="Source Sans Pro,Source Sans Pro_MSFontService,sans-serif" font-weight="400" font-size="55" transform="matrix(1 0 0 1 1938.07 1608)">-</text></g><text font-family="Source Sans Pro,Source Sans Pro_MSFontService,sans-serif" font-weight="400" font-size="55" transform="matrix(1 0 0 1 2041.19 1608)">Node/Element data</text><g><text font-family="Source Sans Pro,Source Sans Pro_MSFontService,sans-serif" font-weight="400" font-size="55" transform="matrix(1 0 0 1 1938.07 1674)">-</text></g><text font-family="Source Sans Pro,Source Sans Pro_MSFontService,sans-serif" font-weight="400" font-size="55" transform="matrix(1 0 0 1 2041.19 1674)">Analysis configs</text><g><text font-family="Source Sans Pro,Source Sans Pro_MSFontService,sans-serif" font-weight="400" font-size="55" transform="matrix(1 0 0 1 1938.07 1740)">-</text></g><text font-family="Source Sans Pro,Source Sans Pro_MSFontService,sans-serif" font-weight="400" font-size="55" transform="matrix(1 0 0 1 2041.19 1740)">…</text><rect x="1894" y="948" width="724" height="189" fill="#7F7F7F"/><text fill="#FFFFFF" font-family="Source Sans Pro,Source Sans Pro_MSFontService,sans-serif" font-weight="400" font-size="64" transform="matrix(1 0 0 1 2082.39 1025)">I/O functions</text><text fill="#FFFFFF" font-family="Source Sans Pro,Source Sans Pro_MSFontService,sans-serif" font-weight="400" font-size="64" transform="matrix(1 0 0 1 1930.29 1102)">(read, write, convert, …)</text></g></svg>